<svg xmlns="http://www.w3.org/2000/svg" width="714" height="184" fill="none"><path fill="#fff" d="M341.65 35.6c7.067 0 13.467 1.4 19.201 4.2 5.866 2.667 10.866 6.534 15 11.6 4.133 4.934 7.333 10.934 9.599 18 2.267 6.933 3.401 14.667 3.401 23.2s-1.134 16.333-3.401 23.4c-2.266 6.933-5.466 12.933-9.599 18-4.134 4.933-9.134 8.8-15 11.6-5.734 2.666-12.134 4-19.201 4-7.866 0-14.933-1.733-21.2-5.2-6.266-3.466-11.067-8.334-14.4-14.6v53.8h-27.199V38.2h25.799l.6 18.2c3.333-6.933 8.201-12.133 14.601-15.6 6.533-3.467 13.8-5.2 21.799-5.2Zm117.856 0c8.533 0 16.267 1.4 23.2 4.2 6.933 2.667 12.867 6.534 17.8 11.6 4.933 4.934 8.734 10.934 11.4 18 2.667 6.933 4 14.667 4 23.2s-1.333 16.267-4 23.2c-2.666 6.933-6.467 12.933-11.4 18-4.933 5.066-10.867 9-17.8 11.8-6.933 2.666-14.667 4-23.2 4s-16.266-1.334-23.199-4c-6.934-2.8-12.934-6.734-18-11.8-4.934-5.067-8.734-11.067-11.401-18-2.666-6.933-4-14.667-4-23.2s1.334-16.266 4-23.2c2.667-7.066 6.467-13.066 11.401-18 5.066-5.066 11.066-8.933 18-11.6 6.933-2.8 14.666-4.2 23.199-4.2Zm114.504 0c7.733 0 14.599.934 20.599 2.8 6 1.734 11.067 4.267 15.201 7.6 4.133 3.333 7.333 7.333 9.599 12 2.4 4.667 3.867 9.866 4.401 15.6h-27.8c-.667-5.467-2.934-9.734-6.8-12.8-3.867-3.067-9.067-4.6-15.601-4.6-2.933 0-5.533.333-7.799 1-2.267.533-4.133 1.4-5.6 2.6-1.467 1.066-2.6 2.333-3.4 3.8-.667 1.333-1 2.8-1 4.4 0 2.533.666 4.6 2 6.2 1.333 1.467 3.199 2.733 5.599 3.8 2.534.933 5.401 1.734 8.601 2.4a741.02 741.02 0 0 0 10.399 2c5.067.8 10.134 1.8 15.2 3 5.2 1.067 9.867 2.734 14 5 4.267 2.267 7.667 5.4 10.201 9.4 2.666 3.866 4 9 4 15.4 0 5.733-1.2 10.8-3.6 15.2-2.267 4.267-5.534 7.867-9.801 10.8-4.266 2.8-9.399 4.867-15.399 6.2-5.867 1.467-12.401 2.2-19.601 2.2-8.266 0-15.6-.867-22-2.6-6.266-1.867-11.666-4.467-16.199-7.8-4.4-3.466-7.8-7.6-10.2-12.4-2.267-4.933-3.533-10.4-3.8-16.4h27.8c.4 6 2.599 10.6 6.599 13.8 4 3.2 9.868 4.8 17.601 4.8 2.933 0 5.6-.2 8-.6 2.533-.533 4.666-1.333 6.399-2.4 1.867-1.067 3.267-2.333 4.201-3.8 1.066-1.6 1.599-3.467 1.599-5.6 0-2.534-.667-4.534-2-6-1.333-1.6-3.266-2.934-5.8-4-2.4-1.067-5.333-1.866-8.799-2.4-3.334-.666-7-1.333-11-2a226.033 226.033 0 0 1-14.6-2.6c-4.933-1.2-9.467-2.933-13.601-5.2-4.133-2.266-7.533-5.333-10.2-9.2-2.666-3.866-4-8.867-4-15 0-5.2 1-9.933 3-14.2 2.133-4.267 5.134-7.867 9-10.8 4-3.067 8.867-5.4 14.601-7 5.866-1.733 12.533-2.6 20-2.6Zm103.138 2.6h36.201v23h-36.201v45.6c0 3.6.401 6.667 1.201 9.2.8 2.4 2.066 4.333 3.799 5.8 1.734 1.333 3.867 2.333 6.401 3 2.533.533 5.533.8 9 .8 2.266 0 4.733-.066 7.399-.2 2.667-.266 5.467-.666 8.401-1.2V147c-4.667.933-9 1.6-13 2-4 .4-7.734.6-11.201.6-6.799 0-12.733-.8-17.799-2.4-4.934-1.6-9.067-4.067-12.401-7.4-3.333-3.467-5.799-7.867-7.399-13.2-1.6-5.334-2.401-11.6-2.401-18.8V61.2h-16.399v-23h16.399V11.4h28v26.8ZM142.399 147H111.8l-11.6-33H43l-11.6 33H.8L52.6 4h38.2l51.599 143Zm37.51 0h-27.8V38.2h27.8V147Zm46.151-86c2.266-8 5.666-13.8 10.199-17.4 4.666-3.6 10.601-5.4 17.801-5.4h11.799v28.4H253.06c-4.4 0-8.268.534-11.601 1.6-3.2 1.067-5.867 2.667-8 4.8-2 2-3.533 4.6-4.6 7.8-.933 3.066-1.4 6.733-1.4 11V147h-27.8V38.2h25.6l.801 22.8Zm107.791-2.4c-4.267 0-8.134.8-11.601 2.4-3.467 1.467-6.4 3.733-8.8 6.8-2.266 2.933-4.067 6.533-5.4 10.8-1.2 4.133-1.8 8.867-1.8 14.2 0 5.333.6 10.134 1.8 14.4 1.333 4.133 3.134 7.667 5.4 10.6 2.4 2.8 5.266 5 8.6 6.6 3.466 1.467 7.401 2.2 11.801 2.2 4.266 0 7.999-.733 11.199-2.2 3.333-1.466 6.134-3.667 8.4-6.6 2.4-2.933 4.134-6.467 5.2-10.6 1.2-4.133 1.8-8.934 1.8-14.4 0-5.467-.6-10.266-1.8-14.4-1.066-4.266-2.8-7.867-5.2-10.8-2.266-2.934-5.067-5.133-8.4-6.6-3.2-1.6-6.933-2.4-11.199-2.4Zm125.655 0c-4.4 0-8.4.8-12 2.4a24.466 24.466 0 0 0-8.8 6.8c-2.4 2.933-4.266 6.533-5.6 10.8-1.2 4.133-1.799 8.8-1.799 14 0 5.2.599 9.933 1.799 14.2 1.334 4.133 3.2 7.733 5.6 10.8 2.4 2.933 5.333 5.2 8.8 6.8 3.6 1.467 7.6 2.2 12 2.2s8.334-.733 11.801-2.2a24.474 24.474 0 0 0 8.799-6.8c2.534-3.067 4.4-6.667 5.6-10.8 1.333-4.267 2-9 2-14.2 0-5.2-.667-9.867-2-14-1.2-4.267-3.066-7.867-5.6-10.8-2.399-2.933-5.333-5.2-8.799-6.8-3.467-1.6-7.401-2.4-11.801-2.4ZM50.6 90.6h42l-21-60.4-21 60.4Zm129.71-64.2h-28.6V.8h28.6v25.6Z"/></svg>